<?xml version="1.0" encoding="UTF-8" standalone="no" ?>
<!DOCTYPE svg PUBLIC "-//W3C//DTD SVG 1.1//EN" "http://www.w3.org/Graphics/SVG/1.1/DTD/svg11.dtd">
<svg xmlns="http://www.w3.org/2000/svg" xmlns:xlink="http://www.w3.org/1999/xlink" version="1.1" width="1280" height="1024" viewBox="0 0 1280 1024" xml:space="preserve">
<desc>Created with Fabric.js 3.6.3</desc>
<defs>
</defs>
<g transform="matrix(1.9662058371735787 0 0 1.9662058371735787 640.2456813819576 512.1966205837173)" id="background-logo"  >
<rect style="stroke: none; stroke-width: 1; stroke-dasharray: none; stroke-linecap: butt; stroke-dashoffset: 0; stroke-linejoin: miter; stroke-miterlimit: 4; fill: rgb(15,15,15); fill-rule: nonzero; opacity: 1;"  paint-order="stroke"  x="-325" y="-260" rx="0" ry="0" width="650" height="520" />
</g>
<g transform="matrix(2.681675527863838 0 0 2.681675527863838 640.2456813819578 509.539253321504)" id="logo-logo"  >
<g style=""  paint-order="stroke"   >
		<g transform="matrix(1.2485131559256284 0 0 1.2485131559256284 0 0)"  >
<g style=""  paint-order="stroke"   >
		<g transform="matrix(1 0 0 1 0 0)"  >
<polygon style="stroke: none; stroke-width: 1; stroke-dasharray: none; stroke-linecap: butt; stroke-dashoffset: 0; stroke-linejoin: miter; stroke-miterlimit: 4; fill: rgb(255,255,255); fill-rule: nonzero; opacity: 1;"  paint-order="stroke"  points="100,100 0,100 0,95.12 95.12,95.12 95.12,-95.12 -95.12,-95.12 -95.12,0 -100,0 -100,-100 100,-100 100,100 " />
</g>
</g>
</g>
</g>
</g>
<g transform="matrix(1.9699870022450658 0 0 1.9699870022450658 640.4005485242241 505.6032316861632)" id="text-logo-path"  >
<path style="stroke: rgb(255,255,255); stroke-width: 0; stroke-dasharray: none; stroke-linecap: butt; stroke-dashoffset: 0; stroke-linejoin: miter; stroke-miterlimit: 10; fill: rgb(255,255,255); fill-rule: nonzero; opacity: 1;"  paint-order="stroke"  transform=" translate(-80.19, 104.63499999999999)" d="M 25.79 -40.25 L 25.79 -40.25 L 25.79 -67.61 L 48.27 -67.61 L 48.27 -38.99 Q 48.27 -27.36 56.37 -20.91 Q 64.46 -14.46 80.19 -14.46 Q 95.91 -14.46 104.01 -20.91 Q 112.1 -27.36 112.1 -38.44 Q 112.1 -49.53 109.67 -56.13 Q 107.23 -62.73 99.84 -70.12 L 99.84 -70.12 L 43.08 -125.62 Q 33.17 -135.53 29.48 -145.04 Q 25.79 -154.55 25.79 -169.02 L 25.79 -169.02 Q 25.79 -190.56 39.15 -202.35 Q 52.51 -214.14 79.56 -214.14 L 79.56 -214.14 Q 131.44 -214.14 131.44 -169.02 L 131.44 -169.02 L 131.44 -141.66 L 108.8 -141.66 L 108.8 -170.28 Q 108.8 -181.91 101.25 -188.36 Q 93.71 -194.8 78.53 -194.8 Q 63.36 -194.8 55.82 -188.36 Q 48.27 -181.91 48.27 -170.67 Q 48.27 -159.43 50.55 -152.98 Q 52.83 -146.54 60.53 -139.46 L 60.53 -139.46 L 118.23 -84.12 Q 127.51 -73.74 131.05 -64.23 Q 134.59 -54.71 134.59 -40.25 L 134.59 -40.25 Q 134.59 4.87 80.19 4.87 Q 25.79 4.87 25.79 -40.25 Z" stroke-linecap="round" />
</g>
</svg>